<svg width="20.000000" height="20.000000" viewBox="0 0 20 20" fill="none" xmlns="http://www.w3.org/2000/svg" xmlns:xlink="http://www.w3.org/1999/xlink">
	<desc>
			Created with Pixso.
	</desc>
	<defs>
		<clipPath id="clip14_2">
			<rect id="entypo-social:vk" rx="0.000000" width="19.000000" height="19.000000" transform="translate(0.500000 0.500000)" fill="white" fill-opacity="0"/>
		</clipPath>
	</defs>
	<rect id="entypo-social:vk" rx="0.000000" width="19.000000" height="19.000000" transform="translate(0.500000 0.500000)" fill="#FFFFFF" fill-opacity="0"/>
	<g clip-path="url(#clip14_2)">
		<path id="Vector" d="M17.8 12.29C17.8 12.29 19.41 13.89 19.81 14.63C19.82 14.64 19.83 14.65 19.83 14.66C20 14.94 20.04 15.15 19.95 15.31C19.82 15.57 19.36 15.7 19.21 15.71L16.35 15.71C16.15 15.71 15.74 15.66 15.23 15.31C14.85 15.04 14.47 14.6 14.09 14.17C13.54 13.52 13.06 12.97 12.58 12.97C12.52 12.97 12.45 12.98 12.4 13C12.03 13.11 11.56 13.64 11.56 15.03C11.56 15.46 11.22 15.71 10.98 15.71L9.67 15.71C9.22 15.71 6.9 15.56 4.84 13.39C2.32 10.73 0.05 5.4 0.03 5.35C-0.11 5 0.19 4.82 0.51 4.82L3.39 4.82C3.78 4.82 3.91 5.05 3.99 5.26C4.1 5.5 4.47 6.46 5.09 7.55C6.1 9.31 6.71 10.03 7.21 10.03C7.3 10.03 7.39 10 7.47 9.96C8.12 9.6 8 7.3 7.97 6.83C7.97 6.74 7.96 5.8 7.63 5.35C7.4 5.03 7 4.9 6.75 4.85C6.82 4.76 6.96 4.62 7.13 4.53C7.57 4.31 8.37 4.28 9.16 4.28L9.6 4.28C10.46 4.29 10.68 4.35 10.99 4.42C11.62 4.57 11.63 4.98 11.58 6.37C11.56 6.76 11.55 7.21 11.55 7.73C11.55 7.85 11.54 7.97 11.54 8.1C11.52 8.81 11.5 9.61 12 9.94C12.06 9.98 12.14 10 12.22 10C12.39 10 12.91 10 14.32 7.58C14.94 6.51 15.42 5.24 15.46 5.15C15.48 5.09 15.57 4.95 15.67 4.89C15.74 4.85 15.82 4.83 15.91 4.83L19.3 4.83C19.67 4.83 19.92 4.89 19.97 5.03C20.05 5.25 19.95 5.95 18.41 8.04C18.14 8.39 17.91 8.69 17.71 8.96C16.31 10.8 16.31 10.89 17.8 12.29Z" fill="#FFFFFF" fill-opacity="1.000000" fill-rule="evenodd"/>
	</g>
</svg>
