<svg width="20.000000" height="20.000000" viewBox="0 0 20 20" fill="none" xmlns="http://www.w3.org/2000/svg" xmlns:xlink="http://www.w3.org/1999/xlink">
	<desc>
			Created with Pixso.
	</desc>
	<defs>
		<clipPath id="clip14_32">
			<rect id="bxl:telegram" rx="0.000000" width="19.000000" height="19.000000" transform="translate(0.500000 0.500000)" fill="white" fill-opacity="0"/>
		</clipPath>
	</defs>
	<rect id="bxl:telegram" rx="0.000000" width="19.000000" height="19.000000" transform="translate(0.500000 0.500000)" fill="#FFFFFF" fill-opacity="0"/>
	<g clip-path="url(#clip14_32)">
		<path id="Vector" d="M17.22 3.09L2.44 8.79C1.43 9.19 1.44 9.76 2.26 10.01L6.05 11.19L14.83 5.65C15.24 5.4 15.62 5.54 15.31 5.81L8.2 12.23L8.2 12.23L8.2 12.23L7.94 16.14C8.32 16.14 8.49 15.97 8.7 15.76L10.55 13.97L14.38 16.8C15.08 17.19 15.59 16.99 15.77 16.14L18.28 4.29C18.54 3.25 17.89 2.79 17.22 3.09Z" fill="#FFFFFF" fill-opacity="1.000000" fill-rule="nonzero"/>
	</g>
</svg>
