<svg width="20.783691" height="11.963379" viewBox="0 0 20.7837 11.9634" fill="none" xmlns="http://www.w3.org/2000/svg" xmlns:xlink="http://www.w3.org/1999/xlink">
	<desc>
			Created with Pixso.
	</desc>
	<defs/>
	<path id="Vector" d="M0.45 0.45C0.75 0.16 1.14 0 1.56 0C1.97 0 2.37 0.16 2.66 0.45L10.4 8.19L18.13 0.45C18.43 0.17 18.82 0.01 19.23 0.01C19.64 0.02 20.03 0.18 20.32 0.47C20.61 0.76 20.77 1.15 20.78 1.56C20.78 1.97 20.62 2.37 20.34 2.66L11.5 11.5C11.21 11.79 10.81 11.96 10.4 11.96C9.98 11.96 9.58 11.79 9.29 11.5L0.45 2.66C0.16 2.37 0 1.97 0 1.56C0 1.14 0.16 0.75 0.45 0.45Z" fill="#FFFFFF" fill-opacity="1.000000" fill-rule="nonzero"/>
</svg>
